# xmcd
#
# Track frame offsets:
#	150
#	15170
#	25745
#	37213
#	50398
#	65138
#	74964
#	87101
#	101075
#	110476
#	123419
#	138707
#	150954
#	163276
#	172994
#	181906
#	193418
#	205158
#	215620
#	227565
#	241125
#	253954
#	264556
#	274960
#	285916
#	301811
#	316537
#	330836
#	341390
#
# Disc length: 4707 seconds
#
# Revision: 0
# Processed by: cddbd v1.5.2PL0 Copyright (c) Steve Scherf et al.
# Submitted via: EZCDAudioConverter 2.2.2.1
#
DISCID=a212611d
DTITLE=Palito Ortega - Exitos De Oro
DYEAR=2002
DGENRE=Balada
TTITLE0=Prometimos No Llorar
TTITLE1=Bienvenido Amor
TTITLE2=Jenny
TTITLE3=Vestida De Novia
TTITLE4=Por Muchas Razones Te Quiero
TTITLE5=La Chevecha
TTITLE6=Corazon Contento
TTITLE7=Yo Tengo Fe
TTITLE8=Deci Por Que No Queres
TTITLE9=Papeles
TTITLE10=Muchacho Que Vas Cantando
TTITLE11=La Felicidad
TTITLE12=Se Parece A Mi Mama
TTITLE13=Un Muchacho Como Yo
TTITLE14=Gracias Señor Tiempo
TTITLE15=Despeinada
TTITLE16=Voy Cantando
TTITLE17=Al Lado
TTITLE18=Nada Vale Sin Amor
TTITLE19=Sabor A Nada
TTITLE20=Muchacha Enamorada
TTITLE21=Yo Tengo La Culpa
TTITLE22=Nunca Te Dejare De Amar
TTITLE23=Yo Quiero A Lola
TTITLE24=Que Vas A Hacer Esta Noche
TTITLE25=Un Dia De Invierno
TTITLE26=No Quiero Problemas
TTITLE27=Se De Un Mundo Mejor
TTITLE28=No Es Nada
EXTD=
EXTT0=
EXTT1=
EXTT2=
EXTT3=
EXTT4=
EXTT5=
EXTT6=
EXTT7=
EXTT8=
EXTT9=
EXTT10=
EXTT11=
EXTT12=
EXTT13=
EXTT14=
EXTT15=
EXTT16=
EXTT17=
EXTT18=
EXTT19=
EXTT20=
EXTT21=
EXTT22=
EXTT23=
EXTT24=
EXTT25=
EXTT26=
EXTT27=
EXTT28=
PLAYORDER=
